<svg width="96" height="96" viewBox="0 0 96 96" fill="none" xmlns="http://www.w3.org/2000/svg">
<mask id="mask0_360_4042" style="mask-type:alpha" maskUnits="userSpaceOnUse" x="0" y="0" width="96" height="96">
<rect width="96" height="96" fill="#D9D9D9"/>
</mask>
<g mask="url(#mask0_360_4042)">
<path d="M8 80V68H16V24C16 21.8 16.7833 19.9167 18.35 18.35C19.9167 16.7833 21.8 16 24 16H84V24H24V68H48V80H8ZM60 80C58.8667 80 57.9167 79.6167 57.15 78.85C56.3833 78.0833 56 77.1333 56 76V36C56 34.8667 56.3833 33.9167 57.15 33.15C57.9167 32.3833 58.8667 32 60 32H84C85.1333 32 86.0833 32.3833 86.85 33.15C87.6167 33.9167 88 34.8667 88 36V76C88 77.1333 87.6167 78.0833 86.85 78.85C86.0833 79.6167 85.1333 80 84 80H60ZM64 68H80V40H64V68Z" fill="white"/>
</g>
</svg>
