<svg width="96" height="96" viewBox="0 0 96 96" fill="none" xmlns="http://www.w3.org/2000/svg">
<path d="M84.84 63.5598C82.2953 69.5778 78.3151 74.8807 73.2475 79.005C68.1799 83.1294 62.1791 85.9495 55.7697 87.2189C49.3604 88.4884 42.7377 88.1684 36.4806 86.287C30.2235 84.4056 24.5225 81.0201 19.8761 76.4264C15.2297 71.8328 11.7793 66.1708 9.82654 59.9356C7.87382 53.7004 7.47824 47.0818 8.67439 40.6584C9.87053 34.2349 12.622 28.2023 16.6882 23.0879C20.7544 17.9735 26.0115 13.9331 32 11.3198" stroke="white" stroke-width="8" stroke-linecap="round" stroke-linejoin="round"/>
<path d="M88 48C88 42.7471 86.9654 37.5457 84.9552 32.6927C82.945 27.8396 79.9986 23.4301 76.2843 19.7157C72.5699 16.0014 68.1604 13.055 63.3073 11.0448C58.4543 9.03463 53.2529 8 48 8V48H88Z" stroke="white" stroke-width="8" stroke-linecap="round" stroke-linejoin="round"/>
</svg>
