<svg width="40" height="40" viewBox="0 0 40 40" fill="none" xmlns="http://www.w3.org/2000/svg">
<path d="M16.704 25.8515V39.3738C16.704 39.5934 16.8821 39.7715 17.1017 39.7715H22.6697C22.8894 39.7715 23.0675 39.5934 23.0675 39.3738V25.8515C23.0675 25.6318 23.2455 25.4538 23.4652 25.4538H27.4423C27.662 25.4538 27.84 25.2757 27.84 25.056V20.2835C27.84 20.0638 27.662 19.8857 27.4423 19.8857H23.4652C23.2455 19.8857 23.0675 19.7079 23.0675 19.4883V15.9086C23.0675 14.3177 25.056 13.5223 25.8515 13.5223H28.2378C28.4574 13.5223 28.6355 13.3442 28.6355 13.1246V8.35201C28.6355 8.13236 28.4575 7.9543 28.2378 7.9543H23.0675C19.2494 7.9543 16.704 11.9314 16.704 14.3177V19.488C16.704 19.7077 16.526 19.8857 16.3063 19.8857H12.3292C12.1095 19.8857 11.9314 20.0638 11.9314 20.2835V25.056C11.9314 25.2757 12.1095 25.4538 12.3292 25.4538H16.3063C16.526 25.4538 16.704 25.6318 16.704 25.8515Z" fill="white"/>
</svg>
