<svg width="37" height="26" viewBox="0 0 37 26" fill="none" xmlns="http://www.w3.org/2000/svg">
<path d="M36.1941 3.92531C35.9837 3.16596 35.5717 2.4736 34.9993 1.91755C34.427 1.36149 33.7143 0.961236 32.9326 0.756841C30.0541 1.76307e-07 18.487 0 18.487 0C18.487 0 6.91998 1.76307e-07 4.04142 0.756841C3.25977 0.961236 2.54709 1.36149 1.97471 1.91755C1.40233 2.4736 0.990325 3.16596 0.779931 3.92531C0.24244 6.77728 -0.0183897 9.67195 0.000871475 12.5713C-0.0183897 15.4706 0.24244 18.3652 0.779931 21.2172C0.990325 21.9766 1.40233 22.6689 1.97471 23.225C2.54709 23.781 3.25977 24.1813 4.04142 24.3857C6.91998 25.1425 18.487 25.1425 18.487 25.1425C18.487 25.1425 30.0541 25.1425 32.9326 24.3857C33.7143 24.1813 34.427 23.781 34.9993 23.225C35.5717 22.6689 35.9837 21.9766 36.1941 21.2172C36.7316 18.3652 36.9924 15.4706 36.9732 12.5713C36.9924 9.67195 36.7316 6.77728 36.1941 3.92531ZM14.7898 17.9589V7.18358L24.3894 12.5713L14.7898 17.9589Z" fill="white"/>
</svg>
