<svg width="53" height="53" viewBox="0 0 53 53" fill="none" xmlns="http://www.w3.org/2000/svg">
<path fill-rule="evenodd" clip-rule="evenodd" d="M11.9339 26.0859C19.6196 22.7373 24.7446 20.5298 27.3089 19.4632C34.6305 16.4179 36.1519 15.8889 37.1435 15.8714C37.3616 15.8676 37.8493 15.9216 38.1651 16.1779C38.4319 16.3944 38.5052 16.6867 38.5404 16.8919C38.5755 17.0971 38.6192 17.5645 38.5844 17.9298C38.1877 22.0986 36.4709 32.2151 35.5975 36.8842C35.2279 38.8599 34.5002 39.5224 33.7958 39.5872C32.2647 39.7281 31.1022 38.5754 29.6193 37.6034C27.2989 36.0823 25.988 35.1355 23.7357 33.6512C21.1327 31.9359 22.8201 30.9931 24.3035 29.4524C24.6918 29.0491 31.4375 22.9134 31.568 22.3568C31.5843 22.2872 31.5995 22.0277 31.4453 21.8907C31.2912 21.7537 31.0637 21.8005 30.8995 21.8378C30.6668 21.8906 26.9599 24.3407 19.7789 29.1881C18.7267 29.9106 17.7737 30.2626 16.9198 30.2442C15.9785 30.2238 14.1677 29.7119 12.8216 29.2743C11.1706 28.7377 9.85835 28.4539 9.97261 27.5424C10.0321 27.0677 10.6859 26.5822 11.9339 26.0859Z" fill="white"/>
</svg>
