<svg width="37" height="37" viewBox="0 0 37 37" fill="none" xmlns="http://www.w3.org/2000/svg">
<path fill-rule="evenodd" clip-rule="evenodd" d="M10.8654 0.110923C12.8368 0.0201678 13.4654 0 18.4872 0C23.5089 0 24.1375 0.0218484 26.1072 0.110923C28.0769 0.199997 29.4215 0.514279 30.5979 0.969735C31.8298 1.43528 32.9475 2.163 33.8718 3.10416C34.813 4.02684 35.539 5.14279 36.0029 6.37639C36.46 7.55284 36.7726 8.89736 36.8634 10.8637C36.9541 12.8385 36.9743 13.4671 36.9743 18.4872C36.9743 23.5089 36.9525 24.1375 36.8634 26.1089C36.7743 28.0753 36.46 29.4198 36.0029 30.5962C35.539 31.83 34.8118 32.9478 33.8718 33.8718C32.9475 34.813 31.8298 35.539 30.5979 36.0029C29.4215 36.46 28.0769 36.7726 26.1106 36.8634C24.1375 36.9541 23.5089 36.9743 18.4872 36.9743C13.4654 36.9743 12.8368 36.9525 10.8654 36.8634C8.89904 36.7743 7.55452 36.46 6.37807 36.0029C5.14434 35.539 4.02654 34.8117 3.10248 33.8718C2.16195 32.9486 1.43412 31.8313 0.969735 30.5979C0.514279 29.4215 0.201678 28.0769 0.110923 26.1106C0.0201678 24.1358 0 23.5073 0 18.4872C0 13.4654 0.0218484 12.8368 0.110923 10.8671C0.199997 8.89736 0.514279 7.55284 0.969735 6.37639C1.43481 5.14293 2.1632 4.02568 3.10416 3.10248C4.02691 2.16216 5.14358 1.43434 6.37639 0.969735C7.55284 0.514279 8.89736 0.201678 10.8637 0.110923H10.8654ZM25.9576 3.43861C24.0081 3.34954 23.4232 3.33105 18.4872 3.33105C13.5511 3.33105 12.9662 3.34954 11.0167 3.43861C9.21332 3.52096 8.23519 3.8218 7.58309 4.07558C6.72092 4.41171 6.10412 4.81002 5.45707 5.45707C4.84371 6.05379 4.37167 6.78022 4.07558 7.58309C3.8218 8.23519 3.52096 9.21332 3.43861 11.0167C3.34954 12.9662 3.33105 13.5511 3.33105 18.4872C3.33105 23.4232 3.34954 24.0081 3.43861 25.9576C3.52096 27.761 3.8218 28.7391 4.07558 29.3912C4.37137 30.1929 4.84363 30.9206 5.45707 31.5172C6.0537 32.1307 6.78142 32.6029 7.58309 32.8987C8.23519 33.1525 9.21332 33.4533 11.0167 33.5357C12.9662 33.6248 13.5494 33.6433 18.4872 33.6433C23.4249 33.6433 24.0081 33.6248 25.9576 33.5357C27.761 33.4533 28.7391 33.1525 29.3912 32.8987C30.2534 32.5626 30.8702 32.1643 31.5172 31.5172C32.1307 30.9206 32.6029 30.1929 32.8987 29.3912C33.1525 28.7391 33.4533 27.761 33.5357 25.9576C33.6248 24.0081 33.6433 23.4232 33.6433 18.4872C33.6433 13.5511 33.6248 12.9662 33.5357 11.0167C33.4533 9.21332 33.1525 8.23519 32.8987 7.58309C32.5626 6.72092 32.1643 6.10412 31.5172 5.45707C30.9205 4.84375 30.1941 4.37173 29.3912 4.07558C28.7391 3.8218 27.761 3.52096 25.9576 3.43861ZM16.1258 24.1862C17.4446 24.7352 18.913 24.8093 20.2803 24.3959C21.6476 23.9824 22.8289 23.1071 23.6226 21.9195C24.4162 20.7318 24.7729 19.3054 24.6317 17.884C24.4905 16.4625 23.8602 15.1342 22.8484 14.1259C22.2035 13.4813 21.4236 12.9878 20.565 12.6808C19.7064 12.3738 18.7904 12.261 17.883 12.3505C16.9755 12.44 16.0992 12.7295 15.3171 13.1984C14.535 13.6672 13.8666 14.3036 13.36 15.0617C12.8534 15.8199 12.5212 16.6809 12.3873 17.5829C12.2534 18.4849 12.3211 19.4053 12.5856 20.2779C12.8501 21.1505 13.3048 21.9537 13.917 22.6295C14.5292 23.3053 15.2835 23.837 16.1258 24.1862ZM11.7679 11.7679C12.6503 10.8855 13.6978 10.1856 14.8507 9.70804C16.0036 9.2305 17.2393 8.98471 18.4872 8.98471C19.735 8.98471 20.9707 9.2305 22.1236 9.70804C23.2765 10.1856 24.324 10.8855 25.2064 11.7679C26.0888 12.6503 26.7887 13.6978 27.2663 14.8507C27.7438 16.0036 27.9896 17.2393 27.9896 18.4872C27.9896 19.735 27.7438 20.9707 27.2663 22.1236C26.7887 23.2765 26.0888 24.324 25.2064 25.2064C23.4243 26.9884 21.0074 27.9896 18.4872 27.9896C15.967 27.9896 13.55 26.9884 11.7679 25.2064C9.98586 23.4243 8.98471 21.0074 8.98471 18.4872C8.98471 15.967 9.98586 13.55 11.7679 11.7679ZM30.0971 10.3999C30.3158 10.1936 30.4908 9.94555 30.6119 9.67042C30.733 9.39528 30.7976 9.09865 30.802 8.79809C30.8064 8.49752 30.7504 8.19913 30.6374 7.92059C30.5244 7.64204 30.3566 7.389 30.1441 7.17644C29.9315 6.96389 29.6785 6.79614 29.3999 6.68314C29.1214 6.57013 28.823 6.51416 28.5224 6.51854C28.2219 6.52292 27.9252 6.58757 27.6501 6.70865C27.375 6.82972 27.1269 7.00478 26.9207 7.22343C26.5195 7.64869 26.2999 8.21354 26.3084 8.79809C26.3169 9.38263 26.5529 9.94084 26.9663 10.3542C27.3797 10.7676 27.9379 11.0036 28.5224 11.0121C29.107 11.0206 29.6718 10.801 30.0971 10.3999Z" fill="white"/>
</svg>
