<svg width="96" height="96" viewBox="0 0 96 96" fill="none" xmlns="http://www.w3.org/2000/svg">
<mask id="mask0_360_4032" style="mask-type:alpha" maskUnits="userSpaceOnUse" x="0" y="0" width="96" height="96">
<rect width="96" height="96" fill="#D9D9D9"/>
</mask>
<g mask="url(#mask0_360_4032)">
<path d="M38.7 54.8L42.2 43.4L33 36H44.4L48 24.8L51.6 36H63L53.7 43.4L57.2 54.8L48 47.7L38.7 54.8ZM24 92V61.1C21.4667 58.3 19.5 55.1 18.1 51.5C16.7 47.9 16 44.0667 16 40C16 31.0667 19.1 23.5 25.3 17.3C31.5 11.1 39.0667 8 48 8C56.9333 8 64.5 11.1 70.7 17.3C76.9 23.5 80 31.0667 80 40C80 44.0667 79.3 47.9 77.9 51.5C76.5 55.1 74.5333 58.3 72 61.1V92L48 84L24 92ZM48 64C54.6667 64 60.3333 61.6667 65 57C69.6667 52.3333 72 46.6667 72 40C72 33.3333 69.6667 27.6667 65 23C60.3333 18.3333 54.6667 16 48 16C41.3333 16 35.6667 18.3333 31 23C26.3333 27.6667 24 33.3333 24 40C24 46.6667 26.3333 52.3333 31 57C35.6667 61.6667 41.3333 64 48 64ZM32 80.1L48 76L64 80.1V67.7C61.6667 69.0333 59.15 70.0833 56.45 70.85C53.75 71.6167 50.9333 72 48 72C45.0667 72 42.25 71.6167 39.55 70.85C36.85 70.0833 34.3333 69.0333 32 67.7V80.1Z" fill="white"/>
</g>
</svg>
